<?xml version="1.0" encoding="UTF-8" standalone="no"?>
<!-- Created with Inkscape (http://www.inkscape.org/) -->

<svg
   width="128.00002"
   height="127.99999"
   viewBox="0 0 33.866671 33.866665"
   version="1.1"
   id="svg1"
   xml:space="preserve"
   xmlns="http://www.w3.org/2000/svg"
   xmlns:svg="http://www.w3.org/2000/svg"><defs
     id="defs1"><linearGradient
       id="rustrover_svg__a"
       x1="7.671"
       x2="61.125"
       y1="64.392998"
       y2="39.609001"
       gradientUnits="userSpaceOnUse"><stop
         offset=".08"
         stop-color="#00D886"
         id="stop1" /><stop
         offset=".46"
         stop-color="#FFAB00"
         id="stop2" /></linearGradient><linearGradient
       id="rustrover_svg__b"
       x1="59.931999"
       x2="1.336"
       y1="59.675999"
       y2="1.08"
       gradientUnits="userSpaceOnUse"><stop
         offset=".19"
         stop-color="#FFAB00"
         id="stop3" /><stop
         offset=".83"
         stop-color="#FF004C"
         id="stop4" /></linearGradient></defs><g
     id="layer1"
     transform="translate(-32.279167,-138.64166)"
     style="display:none"><circle
       cx="49.212509"
       cy="155.575"
       r="15.743801"
       id="circle2892"
       style="display:inline;opacity:0.2;fill:none;fill-opacity:1;stroke:currentColor;stroke-width:0.261937;stroke-linecap:butt;stroke-linejoin:miter;stroke-miterlimit:4;stroke-dasharray:none;stroke-dashoffset:0;stroke-opacity:1;marker:none;marker-start:none;marker-mid:none;marker-end:none;paint-order:normal;enable-background:new" /><rect
       ry="2.096508"
       rx="2.096508"
       y="141.94769"
       x="35.585205"
       height="27.254602"
       width="27.254602"
       id="rect2896"
       style="display:inline;opacity:0.2;fill:none;fill-opacity:1;stroke:currentColor;stroke-width:0.261937;stroke-linecap:butt;stroke-linejoin:miter;stroke-miterlimit:4;stroke-dasharray:none;stroke-dashoffset:0;stroke-opacity:1;marker:none;marker-start:none;marker-mid:none;marker-end:none;paint-order:normal;enable-background:new" /></g><g
     id="layer2"><g
       style="fill:none"
       id="g1"
       transform="matrix(0.4268243,0,0,0.4268243,3.4038259,3.3416439)"><path
         fill="#00d886"
         d="m 6,47.55 v 12.258 a 4.125,4.125 0 0 0 4.19,4.124 L 21.234,63.756 A 4.124,4.124 0 0 0 24.3,62.316 L 57.007,24.158 C 57.647,23.411 58,22.458 58,21.474 V 10.125 A 4.125,4.125 0 0 0 53.875,6 H 42.872 c -1.19,0 -2.321,0.514 -3.105,1.409 L 7.021,44.833 A 4.124,4.124 0 0 0 6,47.55 Z"
         id="path4" /><path
         fill="url(#rustrover_svg__a)"
         d="m 6,49.015 v 10.862 a 4.125,4.125 0 0 0 4.125,4.125 h 12.566 c 0.2,0 0.4,-0.014 0.598,-0.044 L 60.474,58.51 A 4.125,4.125 0 0 0 64,54.429 V 39.03 A 4.125,4.125 0 0 0 59.873,34.905 L 41.369,34.91 c -0.426,0 -0.849,0.066 -1.254,0.195 L 8.871,45.085 A 4.126,4.126 0 0 0 6,49.015 Z"
         id="path5"
         style="fill:url(#rustrover_svg__a)" /><path
         fill="url(#rustrover_svg__b)"
         d="m 0,4.125 v 34.127 c 0,1.659 0.993,3.155 2.52,3.8 L 39.943,57.85 c 0.518,0.219 1.075,0.33 1.638,0.324 L 59.91,58.024 A 4.125,4.125 0 0 0 64,53.9 V 36.234 c 0,-0.806 -0.236,-1.593 -0.678,-2.267 L 42.213,1.86 A 4.125,4.125 0 0 0 38.766,0 H 4.125 A 4.125,4.125 0 0 0 0,4.125 Z"
         id="path6"
         style="fill:url(#rustrover_svg__b)" /><path
         fill="#000000"
         d="M 52,12 H 12 v 40 h 40 z"
         id="path7" /><path
         fill="#ffffff"
         d="M 33,44 H 17 v 3 H 33 Z M 16.992,16.992 h 6.442 c 1.05,0 1.976,0.193 2.776,0.579 0.8,0.386 1.417,0.929 1.85,1.63 0.432,0.7 0.648,1.51 0.648,2.432 0,0.922 -0.22,1.75 -0.66,2.46 -0.439,0.712 -1.065,1.262 -1.875,1.651 -0.811,0.39 -1.753,0.584 -2.825,0.584 h -3.43 v 5.67 h -2.926 z m 7.54,6.63 c 0.369,-0.183 0.653,-0.444 0.853,-0.783 0.2,-0.34 0.3,-0.734 0.3,-1.184 0,-0.45 -0.1,-0.852 -0.3,-1.185 -0.2,-0.332 -0.485,-0.59 -0.852,-0.772 -0.368,-0.182 -0.799,-0.273 -1.292,-0.273 h -3.323 v 4.47 h 3.323 c 0.493,0 0.924,-0.09 1.292,-0.273 z m -2.63,1.763 h 3.194 L 29.03,32 h -3.355 l -3.773,-6.614 z m 9.711,-8.393 h 6.442 c 1.05,0 1.976,0.193 2.776,0.579 0.8,0.386 1.417,0.929 1.85,1.63 0.432,0.7 0.648,1.51 0.648,2.432 0,0.922 -0.22,1.75 -0.66,2.46 -0.439,0.712 -1.064,1.262 -1.875,1.651 -0.811,0.39 -1.753,0.584 -2.824,0.584 h -3.43 v 5.67 h -2.927 z m 7.54,6.63 c 0.369,-0.183 0.653,-0.444 0.853,-0.783 0.2,-0.34 0.3,-0.734 0.3,-1.184 0,-0.45 -0.1,-0.852 -0.3,-1.185 -0.2,-0.332 -0.485,-0.59 -0.852,-0.772 -0.368,-0.182 -0.799,-0.273 -1.292,-0.273 h -3.323 v 4.47 h 3.323 c 0.493,0 0.924,-0.09 1.292,-0.273 z m -2.63,1.763 h 3.194 L 43.651,32 h -3.355 l -3.773,-6.614 z"
         id="path8" /></g></g></svg>
